PathFileType	4	(X/Y/Z)	C:/Users/opensim2020/Desktop/walking_exp_matlab/subject03_walking09_straight_03.trc	
DataRate	CameraRate	NumFrames	NumMarkers	Units	OrigDataRate	OrigDataStartFrame	OrigNumFrames	
100.00	100.00	5	47	mm	100.00	3131	383	
Frame#	Time	LFHD			RFHD			LBHD			RBHD			C7			T10			CLAV			STRN			RBAK			LSHO			LUPA			LELB			LFRM			LWRA			LWRB			LFIN			RSHO			RUPA			RELB			RFRM			RWRA			RWRB			RFIN			LASI			RASI			LPSI			RPSI			LTHI			LKNE			LTIB			LANK			LHEE			LTOE			RTHI			RKNE			RTIB			RANK			RHEE			RTOE			*39			*40			*41			*42			*43			*44			*45			*46			
		X1	Y1	Z1	X2	Y2	Z2	X3	Y3	Z3	X4	Y4	Z4	X5	Y5	Z5	X6	Y6	Z6	X7	Y7	Z7	X8	Y8	Z8	X9	Y9	Z9	X10	Y10	Z10	X11	Y11	Z11	X12	Y12	Z12	X13	Y13	Z13	X14	Y14	Z14	X15	Y15	Z15	X16	Y16	Z16	X17	Y17	Z17	X18	Y18	Z18	X19	Y19	Z19	X20	Y20	Z20	X21	Y21	Z21	X22	Y22	Z22	X23	Y23	Z23	X24	Y24	Z24	X25	Y25	Z25	X26	Y26	Z26	X27	Y27	Z27	X28	Y28	Z28	X29	Y29	Z29	X30	Y30	Z30	X31	Y31	Z31	X32	Y32	Z32	X33	Y33	Z33	X34	Y34	Z34	X35	Y35	Z35	X36	Y36	Z36	X37	Y37	Z37	X38	Y38	Z38	X39	Y39	Z39	X40	Y40	Z40	X41	Y41	Z41	X42	Y42	Z42	X43	Y43	Z43	X44	Y44	Z44	X45	Y45	Z45	X46	Y46	Z46	X47	Y47	Z47	

336	3.350	-1050.20996	1420.28589	1621.01550	-922.54993	1381.82458	1619.00330	-1084.08704	1298.19250	1573.01807	-958.15247	1264.66882	1570.32446	-1039.21497	1254.14746	1413.31274	-1044.80322	1223.89526	1099.49731	-1013.50867	1372.96436	1337.08911	-1012.29608	1418.57703	1172.72314	-958.42163	1183.68018	1235.83630	-1173.30334	1363.50415	1375.80188	-1249.73535	1399.58215	1186.12256	-1262.61694	1434.91602	1068.83057	-1253.43799	1490.58008	951.46655	-1218.07043	1529.55688	841.16125	-1272.95947	1520.98438	843.04034	-1259.03345	1555.72656	767.24994	-866.18066	1295.83008	1357.02136	-795.43677	1289.24194	1134.11060	-778.63898	1306.75635	1023.31287	-773.26074	1331.18115	888.57233	-801.58337	1374.67200	796.23743	-765.39734	1334.98987	788.19128	-770.58667	1364.35620	719.07825	-1136.60840	1406.38135	938.26434	-899.78546	1372.18140	936.48999	-1107.55762	1238.62988	962.71063	-960.41449	1218.15430	962.51440	-1172.67554	1339.91223	636.75421	-1129.27625	1323.92212	459.77325	-1132.96118	1260.10632	274.66119	-1088.00806	1226.25024	67.32443	-1054.32312	1181.95264	33.99905	-1054.75488	1376.43970	29.44987	-852.85077	1386.80908	647.10828	-878.34058	1467.35767	484.63162	-880.81677	1419.16418	299.53745	-929.40265	1381.31799	87.92806	-986.43481	1338.97546	58.30145	-933.41333	1513.33130	40.34365	-1022.17389	1323.79504	1675.58789																					 
337	3.360	-1049.44202	1426.78882	1620.63074	-921.68536	1387.84204	1618.28857	-1083.41626	1304.54688	1572.24939	-957.58484	1270.73254	1569.44482	-1038.78210	1260.54663	1412.73743	-1044.31506	1229.82349	1098.87683	-1012.85333	1379.19409	1336.31299	-1011.76154	1424.62280	1171.89038	-958.25281	1189.60913	1235.31897	-1172.52979	1370.11755	1375.26843	-1249.04492	1407.36450	1186.15198	-1261.76831	1443.64233	1069.14966	-1252.00146	1500.85645	952.64868	-1215.93933	1541.15234	843.06830	-1270.99426	1532.82959	844.58093	-1256.43140	1568.72742	769.45673	-865.72003	1301.70630	1356.14526	-795.14435	1294.37671	1133.29834	-778.39178	1311.57727	1022.41998	-772.94800	1335.62012	887.60382	-801.05597	1379.01440	795.13965	-765.12360	1339.08313	787.22119	-769.98669	1368.39355	718.05676	-1136.34106	1412.30249	937.65936	-899.48895	1378.29980	935.59241	-1107.17297	1244.66003	962.03271	-960.04041	1224.18250	961.62854	-1172.20850	1344.26746	636.46497	-1129.18225	1326.82056	459.90140	-1132.62170	1261.44360	274.81406	-1087.71582	1226.33435	67.78473	-1054.04956	1182.02502	34.54129	-1054.82104	1376.50061	29.48020	-852.50067	1392.14722	645.95343	-878.60303	1473.88379	483.92682	-881.13257	1432.18091	297.56015	-929.90881	1403.29248	84.42012	-987.32184	1362.88367	53.65150	-932.84509	1537.08508	41.18780	-1021.36127	1329.87915	1674.84241																					 
338	3.370	-1048.41467	1432.93176	1619.86658	-920.79938	1393.83081	1617.49817	-1082.63843	1310.85339	1571.41406	-956.94727	1276.81750	1568.57410	-1038.26172	1266.88904	1412.05237	-1043.73096	1235.79956	1098.25549	-1012.13037	1385.41370	1335.48462	-1011.15997	1430.71838	1170.99719	-957.96777	1195.64722	1234.66150	-1171.59082	1376.70007	1374.53650	-1248.23401	1415.04797	1186.04797	-1260.96338	1452.30139	1069.40906	-1250.42578	1510.90649	953.74457	-1213.60779	1552.44983	844.86517	-1268.65015	1544.31201	845.98883	-1253.60132	1581.43921	771.58136	-865.12122	1307.67505	1355.29407	-794.81598	1299.66150	1132.41479	-778.06799	1316.49231	1021.44714	-772.59656	1340.15710	886.60791	-800.50000	1383.44995	793.99945	-764.58667	1343.20374	786.21191	-769.56702	1372.51660	717.00958	-1136.00366	1418.43958	937.21399	-899.08411	1384.34558	934.57343	-1106.76025	1250.67200	961.38007	-959.65265	1230.20105	960.68799	-1171.72791	1348.69666	636.28064	-1129.14832	1329.72961	459.79160	-1132.56287	1262.78186	275.12378	-1087.66528	1226.46118	68.18375	-1053.76685	1182.08765	35.11671	-1054.76953	1376.45483	29.23236	-852.12524	1397.36609	644.63910	-878.81927	1480.09863	482.97507	-881.51849	1444.65601	295.67163	-930.32629	1424.89807	81.51145	-988.23309	1386.17993	49.47968	-932.11725	1560.07190	42.26547	-1020.57727	1336.00122	1674.05566																					 
339	3.380	-1047.20544	1439.07056	1619.10938	-919.83069	1399.87708	1616.65649	-1081.79285	1317.18188	1570.43066	-956.17908	1282.97144	1567.60327	-1037.67065	1273.21228	1411.32385	-1043.14954	1241.82104	1097.53149	-1011.37445	1391.68445	1334.61389	-1010.48895	1436.83850	1170.09607	-957.58221	1201.65430	1233.92993	-1170.71167	1383.23450	1373.88330	-1247.36707	1422.54395	1185.81873	-1260.04895	1460.75439	1069.58496	-1248.77966	1520.73083	954.74316	-1211.16309	1563.47974	846.60413	-1266.27478	1555.72913	847.36554	-1250.63953	1593.89368	773.70825	-864.52716	1313.66321	1354.33167	-794.56158	1304.84509	1131.32886	-777.88654	1321.70752	1020.38275	-772.20654	1344.85193	885.45465	-799.95898	1387.99329	792.77087	-764.26709	1347.54395	785.10010	-769.01349	1376.65564	715.85126	-1135.53467	1424.05823	936.49042	-898.58612	1390.44250	933.53955	-1106.26990	1256.76501	960.72089	-959.19843	1236.21912	959.63324	-1171.27820	1353.23059	636.04529	-1129.06323	1332.78784	459.61990	-1132.36304	1264.37305	275.35617	-1087.49561	1226.69714	68.42087	-1053.57349	1182.14307	35.70416	-1054.74011	1376.43103	29.06645	-851.61603	1402.48401	643.22217	-879.10846	1485.99744	481.86902	-882.00287	1456.56763	293.90198	-930.99292	1445.70825	78.79725	-989.20032	1408.87622	46.07029	-931.20715	1582.32214	43.41195	-1019.75995	1342.13135	1673.19800																					 
340	3.390	-1046.20239	1445.34619	1618.37769	-918.78815	1405.87158	1615.82019	-1080.98389	1323.52954	1569.57678	-955.37903	1289.15491	1566.61890	-1037.00317	1279.65369	1410.51404	-1042.50989	1247.88696	1096.69531	-1010.53558	1397.91101	1333.68689	-1009.76709	1442.99768	1169.19421	-957.15045	1207.69702	1233.19617	-1169.82361	1389.76648	1373.19910	-1246.52905	1430.06921	1185.56995	-1259.05493	1469.03149	1069.58765	-1247.06934	1530.32849	955.61511	-1208.62756	1574.19324	848.21576	-1263.81677	1566.84326	848.64441	-1247.52319	1606.03821	775.69775	-863.83691	1319.62146	1353.36255	-794.16528	1310.38074	1130.30176	-777.50238	1326.88318	1019.31262	-771.79889	1349.64685	884.32690	-799.40985	1392.63806	791.51147	-763.94434	1351.99854	783.94562	-768.55811	1380.89648	714.60101	-1135.09009	1430.14502	935.92865	-898.05896	1396.56738	932.49377	-1105.78711	1262.86890	960.01898	-958.76184	1242.26025	958.49976	-1170.94482	1357.86450	635.73773	-1129.10132	1336.15515	459.42007	-1132.40247	1266.11389	275.57306	-1087.47656	1226.82434	68.86340	-1053.41199	1182.35120	36.16632	-1054.69031	1376.34387	28.92078	-851.07886	1407.51868	641.70306	-879.40039	1491.66492	480.63446	-882.59534	1467.87451	292.33148	-931.51971	1465.97473	76.90770	-990.27527	1430.90271	43.52672	-930.02753	1603.71631	44.54953	-1018.82184	1348.23596	1672.27209																					 
